%TF.GenerationSoftware,KiCad,Pcbnew,9.0.3*%
%TF.CreationDate,2026-01-09T14:10:27-05:00*%
%TF.ProjectId,BME280_Module,424d4532-3830-45f4-9d6f-64756c652e6b,rev?*%
%TF.SameCoordinates,Original*%
%TF.FileFunction,Legend,Bot*%
%TF.FilePolarity,Positive*%
%FSLAX46Y46*%
G04 Gerber Fmt 4.6, Leading zero omitted, Abs format (unit mm)*
G04 Created by KiCad (PCBNEW 9.0.3) date 2026-01-09 14:10:27*
%MOMM*%
%LPD*%
G01*
G04 APERTURE LIST*
%ADD10C,0.100000*%
%ADD11C,0.120000*%
G04 APERTURE END LIST*
D10*
X133992135Y-96700827D02*
X134072948Y-96727765D01*
X134072948Y-96727765D02*
X134153760Y-96808577D01*
X134153760Y-96808577D02*
X134207635Y-96916326D01*
X134207635Y-96916326D02*
X134207635Y-97024076D01*
X134207635Y-97024076D02*
X134180697Y-97104888D01*
X134180697Y-97104888D02*
X134099885Y-97239575D01*
X134099885Y-97239575D02*
X134019073Y-97320387D01*
X134019073Y-97320387D02*
X133884386Y-97401200D01*
X133884386Y-97401200D02*
X133803574Y-97428137D01*
X133803574Y-97428137D02*
X133695824Y-97428137D01*
X133695824Y-97428137D02*
X133588074Y-97374262D01*
X133588074Y-97374262D02*
X133534200Y-97320387D01*
X133534200Y-97320387D02*
X133480325Y-97212638D01*
X133480325Y-97212638D02*
X133480325Y-97158763D01*
X133480325Y-97158763D02*
X133668887Y-96970201D01*
X133668887Y-96970201D02*
X133776636Y-97077951D01*
X133184013Y-96970201D02*
X133749699Y-96404516D01*
X133749699Y-96404516D02*
X132860764Y-96646952D01*
X132860764Y-96646952D02*
X133426450Y-96081267D01*
X132591391Y-96377578D02*
X133157076Y-95811893D01*
X133157076Y-95811893D02*
X133022389Y-95677206D01*
X133022389Y-95677206D02*
X132914639Y-95623331D01*
X132914639Y-95623331D02*
X132806890Y-95623331D01*
X132806890Y-95623331D02*
X132726078Y-95650269D01*
X132726078Y-95650269D02*
X132591391Y-95731081D01*
X132591391Y-95731081D02*
X132510578Y-95811893D01*
X132510578Y-95811893D02*
X132429766Y-95946580D01*
X132429766Y-95946580D02*
X132402829Y-96027392D01*
X132402829Y-96027392D02*
X132402829Y-96135142D01*
X132402829Y-96135142D02*
X132456704Y-96242891D01*
X132456704Y-96242891D02*
X132591391Y-96377578D01*
X133803574Y-92455887D02*
X133695824Y-92402012D01*
X133695824Y-92402012D02*
X133561137Y-92267325D01*
X133561137Y-92267325D02*
X133534200Y-92186513D01*
X133534200Y-92186513D02*
X133534200Y-92132638D01*
X133534200Y-92132638D02*
X133561137Y-92051826D01*
X133561137Y-92051826D02*
X133615012Y-91997951D01*
X133615012Y-91997951D02*
X133695824Y-91971013D01*
X133695824Y-91971013D02*
X133749699Y-91971013D01*
X133749699Y-91971013D02*
X133830511Y-91997951D01*
X133830511Y-91997951D02*
X133965198Y-92078763D01*
X133965198Y-92078763D02*
X134046010Y-92105700D01*
X134046010Y-92105700D02*
X134099885Y-92105700D01*
X134099885Y-92105700D02*
X134180697Y-92078763D01*
X134180697Y-92078763D02*
X134234572Y-92024888D01*
X134234572Y-92024888D02*
X134261509Y-91944076D01*
X134261509Y-91944076D02*
X134261509Y-91890201D01*
X134261509Y-91890201D02*
X134234572Y-91809389D01*
X134234572Y-91809389D02*
X134099885Y-91674702D01*
X134099885Y-91674702D02*
X133992135Y-91620827D01*
X132941577Y-91540015D02*
X132941577Y-91593890D01*
X132941577Y-91593890D02*
X132995451Y-91701639D01*
X132995451Y-91701639D02*
X133049326Y-91755514D01*
X133049326Y-91755514D02*
X133157076Y-91809389D01*
X133157076Y-91809389D02*
X133264825Y-91809389D01*
X133264825Y-91809389D02*
X133345638Y-91782451D01*
X133345638Y-91782451D02*
X133480325Y-91701639D01*
X133480325Y-91701639D02*
X133561137Y-91620827D01*
X133561137Y-91620827D02*
X133641949Y-91486140D01*
X133641949Y-91486140D02*
X133668886Y-91405328D01*
X133668886Y-91405328D02*
X133668886Y-91297578D01*
X133668886Y-91297578D02*
X133615012Y-91189829D01*
X133615012Y-91189829D02*
X133561137Y-91135954D01*
X133561137Y-91135954D02*
X133453387Y-91082079D01*
X133453387Y-91082079D02*
X133399512Y-91082079D01*
X132375891Y-91082079D02*
X132645265Y-91351453D01*
X132645265Y-91351453D02*
X133210951Y-90785768D01*
X133803574Y-94995887D02*
X133695824Y-94942012D01*
X133695824Y-94942012D02*
X133561137Y-94807325D01*
X133561137Y-94807325D02*
X133534200Y-94726513D01*
X133534200Y-94726513D02*
X133534200Y-94672638D01*
X133534200Y-94672638D02*
X133561137Y-94591826D01*
X133561137Y-94591826D02*
X133615012Y-94537951D01*
X133615012Y-94537951D02*
X133695824Y-94511013D01*
X133695824Y-94511013D02*
X133749699Y-94511013D01*
X133749699Y-94511013D02*
X133830511Y-94537951D01*
X133830511Y-94537951D02*
X133965198Y-94618763D01*
X133965198Y-94618763D02*
X134046010Y-94645700D01*
X134046010Y-94645700D02*
X134099885Y-94645700D01*
X134099885Y-94645700D02*
X134180697Y-94618763D01*
X134180697Y-94618763D02*
X134234572Y-94564888D01*
X134234572Y-94564888D02*
X134261509Y-94484076D01*
X134261509Y-94484076D02*
X134261509Y-94430201D01*
X134261509Y-94430201D02*
X134234572Y-94349389D01*
X134234572Y-94349389D02*
X134099885Y-94214702D01*
X134099885Y-94214702D02*
X133992135Y-94160827D01*
X133210951Y-94457138D02*
X133776636Y-93891453D01*
X133776636Y-93891453D02*
X133641949Y-93756766D01*
X133641949Y-93756766D02*
X133534199Y-93702891D01*
X133534199Y-93702891D02*
X133426450Y-93702891D01*
X133426450Y-93702891D02*
X133345638Y-93729829D01*
X133345638Y-93729829D02*
X133210951Y-93810641D01*
X133210951Y-93810641D02*
X133130138Y-93891453D01*
X133130138Y-93891453D02*
X133049326Y-94026140D01*
X133049326Y-94026140D02*
X133022389Y-94106952D01*
X133022389Y-94106952D02*
X133022389Y-94214702D01*
X133022389Y-94214702D02*
X133076264Y-94322451D01*
X133076264Y-94322451D02*
X133210951Y-94457138D01*
X132833827Y-93756766D02*
X132564453Y-93487392D01*
X132726077Y-93972265D02*
X133103201Y-93218018D01*
X133103201Y-93218018D02*
X132348954Y-93595142D01*
X127127580Y-97232115D02*
X128127580Y-97232115D01*
X127746628Y-97232115D02*
X127794247Y-97136877D01*
X127794247Y-97136877D02*
X127794247Y-96946401D01*
X127794247Y-96946401D02*
X127746628Y-96851163D01*
X127746628Y-96851163D02*
X127699009Y-96803544D01*
X127699009Y-96803544D02*
X127603771Y-96755925D01*
X127603771Y-96755925D02*
X127318057Y-96755925D01*
X127318057Y-96755925D02*
X127222819Y-96803544D01*
X127222819Y-96803544D02*
X127175200Y-96851163D01*
X127175200Y-96851163D02*
X127127580Y-96946401D01*
X127127580Y-96946401D02*
X127127580Y-97136877D01*
X127127580Y-97136877D02*
X127175200Y-97232115D01*
X127794247Y-96422591D02*
X127127580Y-96184496D01*
X127794247Y-95946401D02*
X127127580Y-96184496D01*
X127127580Y-96184496D02*
X126889485Y-96279734D01*
X126889485Y-96279734D02*
X126841866Y-96327353D01*
X126841866Y-96327353D02*
X126794247Y-96422591D01*
X127175200Y-94422591D02*
X127127580Y-94517829D01*
X127127580Y-94517829D02*
X127127580Y-94708305D01*
X127127580Y-94708305D02*
X127175200Y-94803543D01*
X127175200Y-94803543D02*
X127270438Y-94851162D01*
X127270438Y-94851162D02*
X127651390Y-94851162D01*
X127651390Y-94851162D02*
X127746628Y-94803543D01*
X127746628Y-94803543D02*
X127794247Y-94708305D01*
X127794247Y-94708305D02*
X127794247Y-94517829D01*
X127794247Y-94517829D02*
X127746628Y-94422591D01*
X127746628Y-94422591D02*
X127651390Y-94374972D01*
X127651390Y-94374972D02*
X127556152Y-94374972D01*
X127556152Y-94374972D02*
X127460914Y-94851162D01*
X127175200Y-93994019D02*
X127127580Y-93898781D01*
X127127580Y-93898781D02*
X127127580Y-93708305D01*
X127127580Y-93708305D02*
X127175200Y-93613067D01*
X127175200Y-93613067D02*
X127270438Y-93565448D01*
X127270438Y-93565448D02*
X127318057Y-93565448D01*
X127318057Y-93565448D02*
X127413295Y-93613067D01*
X127413295Y-93613067D02*
X127460914Y-93708305D01*
X127460914Y-93708305D02*
X127460914Y-93851162D01*
X127460914Y-93851162D02*
X127508533Y-93946400D01*
X127508533Y-93946400D02*
X127603771Y-93994019D01*
X127603771Y-93994019D02*
X127651390Y-93994019D01*
X127651390Y-93994019D02*
X127746628Y-93946400D01*
X127746628Y-93946400D02*
X127794247Y-93851162D01*
X127794247Y-93851162D02*
X127794247Y-93708305D01*
X127794247Y-93708305D02*
X127746628Y-93613067D01*
X127175200Y-93184495D02*
X127127580Y-93089257D01*
X127127580Y-93089257D02*
X127127580Y-92898781D01*
X127127580Y-92898781D02*
X127175200Y-92803543D01*
X127175200Y-92803543D02*
X127270438Y-92755924D01*
X127270438Y-92755924D02*
X127318057Y-92755924D01*
X127318057Y-92755924D02*
X127413295Y-92803543D01*
X127413295Y-92803543D02*
X127460914Y-92898781D01*
X127460914Y-92898781D02*
X127460914Y-93041638D01*
X127460914Y-93041638D02*
X127508533Y-93136876D01*
X127508533Y-93136876D02*
X127603771Y-93184495D01*
X127603771Y-93184495D02*
X127651390Y-93184495D01*
X127651390Y-93184495D02*
X127746628Y-93136876D01*
X127746628Y-93136876D02*
X127794247Y-93041638D01*
X127794247Y-93041638D02*
X127794247Y-92898781D01*
X127794247Y-92898781D02*
X127746628Y-92803543D01*
X127175200Y-91946400D02*
X127127580Y-92041638D01*
X127127580Y-92041638D02*
X127127580Y-92232114D01*
X127127580Y-92232114D02*
X127175200Y-92327352D01*
X127175200Y-92327352D02*
X127270438Y-92374971D01*
X127270438Y-92374971D02*
X127651390Y-92374971D01*
X127651390Y-92374971D02*
X127746628Y-92327352D01*
X127746628Y-92327352D02*
X127794247Y-92232114D01*
X127794247Y-92232114D02*
X127794247Y-92041638D01*
X127794247Y-92041638D02*
X127746628Y-91946400D01*
X127746628Y-91946400D02*
X127651390Y-91898781D01*
X127651390Y-91898781D02*
X127556152Y-91898781D01*
X127556152Y-91898781D02*
X127460914Y-92374971D01*
X127127580Y-91327352D02*
X127175200Y-91422590D01*
X127175200Y-91422590D02*
X127270438Y-91470209D01*
X127270438Y-91470209D02*
X128127580Y-91470209D01*
X133803574Y-90169887D02*
X133695824Y-90116012D01*
X133695824Y-90116012D02*
X133561137Y-89981325D01*
X133561137Y-89981325D02*
X133534200Y-89900513D01*
X133534200Y-89900513D02*
X133534200Y-89846638D01*
X133534200Y-89846638D02*
X133561137Y-89765826D01*
X133561137Y-89765826D02*
X133615012Y-89711951D01*
X133615012Y-89711951D02*
X133695824Y-89685013D01*
X133695824Y-89685013D02*
X133749699Y-89685013D01*
X133749699Y-89685013D02*
X133830511Y-89711951D01*
X133830511Y-89711951D02*
X133965198Y-89792763D01*
X133965198Y-89792763D02*
X134046010Y-89819700D01*
X134046010Y-89819700D02*
X134099885Y-89819700D01*
X134099885Y-89819700D02*
X134180697Y-89792763D01*
X134180697Y-89792763D02*
X134234572Y-89738888D01*
X134234572Y-89738888D02*
X134261509Y-89658076D01*
X134261509Y-89658076D02*
X134261509Y-89604201D01*
X134261509Y-89604201D02*
X134234572Y-89523389D01*
X134234572Y-89523389D02*
X134099885Y-89388702D01*
X134099885Y-89388702D02*
X133992135Y-89334827D01*
X133210951Y-89631138D02*
X133776636Y-89065453D01*
X133776636Y-89065453D02*
X133641949Y-88930766D01*
X133641949Y-88930766D02*
X133534199Y-88876891D01*
X133534199Y-88876891D02*
X133426450Y-88876891D01*
X133426450Y-88876891D02*
X133345638Y-88903829D01*
X133345638Y-88903829D02*
X133210951Y-88984641D01*
X133210951Y-88984641D02*
X133130138Y-89065453D01*
X133130138Y-89065453D02*
X133049326Y-89200140D01*
X133049326Y-89200140D02*
X133022389Y-89280952D01*
X133022389Y-89280952D02*
X133022389Y-89388702D01*
X133022389Y-89388702D02*
X133076264Y-89496451D01*
X133076264Y-89496451D02*
X133210951Y-89631138D01*
X133103201Y-88392018D02*
X132995451Y-88284268D01*
X132995451Y-88284268D02*
X132914639Y-88257331D01*
X132914639Y-88257331D02*
X132806890Y-88257331D01*
X132806890Y-88257331D02*
X132672203Y-88338143D01*
X132672203Y-88338143D02*
X132483641Y-88526705D01*
X132483641Y-88526705D02*
X132402828Y-88661392D01*
X132402828Y-88661392D02*
X132402828Y-88769142D01*
X132402828Y-88769142D02*
X132429766Y-88849954D01*
X132429766Y-88849954D02*
X132537516Y-88957703D01*
X132537516Y-88957703D02*
X132618328Y-88984641D01*
X132618328Y-88984641D02*
X132726077Y-88984641D01*
X132726077Y-88984641D02*
X132860764Y-88903829D01*
X132860764Y-88903829D02*
X133049326Y-88715267D01*
X133049326Y-88715267D02*
X133130138Y-88580580D01*
X133130138Y-88580580D02*
X133130138Y-88472830D01*
X133130138Y-88472830D02*
X133103201Y-88392018D01*
X134142196Y-87145013D02*
X133387949Y-87522137D01*
X133387949Y-87522137D02*
X133765073Y-86767890D01*
X133010826Y-87145014D02*
X133576511Y-86579328D01*
X133576511Y-86579328D02*
X133441824Y-86444641D01*
X133441824Y-86444641D02*
X133334075Y-86390766D01*
X133334075Y-86390766D02*
X133226325Y-86390766D01*
X133226325Y-86390766D02*
X133145513Y-86417704D01*
X133145513Y-86417704D02*
X133010826Y-86498516D01*
X133010826Y-86498516D02*
X132930013Y-86579328D01*
X132930013Y-86579328D02*
X132849201Y-86714015D01*
X132849201Y-86714015D02*
X132822264Y-86794827D01*
X132822264Y-86794827D02*
X132822264Y-86902577D01*
X132822264Y-86902577D02*
X132876139Y-87010327D01*
X132876139Y-87010327D02*
X133010826Y-87145014D01*
X132445140Y-86579328D02*
X133010826Y-86013643D01*
X133010826Y-86013643D02*
X132876139Y-85878956D01*
X132876139Y-85878956D02*
X132768389Y-85825081D01*
X132768389Y-85825081D02*
X132660639Y-85825081D01*
X132660639Y-85825081D02*
X132579827Y-85852018D01*
X132579827Y-85852018D02*
X132445140Y-85932830D01*
X132445140Y-85932830D02*
X132364328Y-86013643D01*
X132364328Y-86013643D02*
X132283516Y-86148330D01*
X132283516Y-86148330D02*
X132256578Y-86229142D01*
X132256578Y-86229142D02*
X132256578Y-86336892D01*
X132256578Y-86336892D02*
X132310453Y-86444641D01*
X132310453Y-86444641D02*
X132445140Y-86579328D01*
X139947523Y-98116895D02*
X139490380Y-98116895D01*
X139718952Y-98916895D02*
X139718952Y-98116895D01*
X139223713Y-98916895D02*
X139223713Y-98116895D01*
X139223713Y-98116895D02*
X138918951Y-98116895D01*
X138918951Y-98116895D02*
X138842761Y-98154990D01*
X138842761Y-98154990D02*
X138804666Y-98193085D01*
X138804666Y-98193085D02*
X138766570Y-98269276D01*
X138766570Y-98269276D02*
X138766570Y-98383561D01*
X138766570Y-98383561D02*
X138804666Y-98459752D01*
X138804666Y-98459752D02*
X138842761Y-98497847D01*
X138842761Y-98497847D02*
X138918951Y-98535942D01*
X138918951Y-98535942D02*
X139223713Y-98535942D01*
X138004666Y-98916895D02*
X138461809Y-98916895D01*
X138233237Y-98916895D02*
X138233237Y-98116895D01*
X138233237Y-98116895D02*
X138309428Y-98231180D01*
X138309428Y-98231180D02*
X138385618Y-98307371D01*
X138385618Y-98307371D02*
X138461809Y-98345466D01*
X139947523Y-84908895D02*
X139490380Y-84908895D01*
X139718952Y-85708895D02*
X139718952Y-84908895D01*
X139223713Y-85708895D02*
X139223713Y-84908895D01*
X139223713Y-84908895D02*
X138918951Y-84908895D01*
X138918951Y-84908895D02*
X138842761Y-84946990D01*
X138842761Y-84946990D02*
X138804666Y-84985085D01*
X138804666Y-84985085D02*
X138766570Y-85061276D01*
X138766570Y-85061276D02*
X138766570Y-85175561D01*
X138766570Y-85175561D02*
X138804666Y-85251752D01*
X138804666Y-85251752D02*
X138842761Y-85289847D01*
X138842761Y-85289847D02*
X138918951Y-85327942D01*
X138918951Y-85327942D02*
X139223713Y-85327942D01*
X138080856Y-85175561D02*
X138080856Y-85708895D01*
X138271332Y-84870800D02*
X138461809Y-85442228D01*
X138461809Y-85442228D02*
X137966570Y-85442228D01*
X140201523Y-89988895D02*
X139744380Y-89988895D01*
X139972952Y-90788895D02*
X139972952Y-89988895D01*
X139477713Y-90788895D02*
X139477713Y-89988895D01*
X139477713Y-89988895D02*
X139172951Y-89988895D01*
X139172951Y-89988895D02*
X139096761Y-90026990D01*
X139096761Y-90026990D02*
X139058666Y-90065085D01*
X139058666Y-90065085D02*
X139020570Y-90141276D01*
X139020570Y-90141276D02*
X139020570Y-90255561D01*
X139020570Y-90255561D02*
X139058666Y-90331752D01*
X139058666Y-90331752D02*
X139096761Y-90369847D01*
X139096761Y-90369847D02*
X139172951Y-90407942D01*
X139172951Y-90407942D02*
X139477713Y-90407942D01*
X138753904Y-89988895D02*
X138258666Y-89988895D01*
X138258666Y-89988895D02*
X138525332Y-90293657D01*
X138525332Y-90293657D02*
X138411047Y-90293657D01*
X138411047Y-90293657D02*
X138334856Y-90331752D01*
X138334856Y-90331752D02*
X138296761Y-90369847D01*
X138296761Y-90369847D02*
X138258666Y-90446038D01*
X138258666Y-90446038D02*
X138258666Y-90636514D01*
X138258666Y-90636514D02*
X138296761Y-90712704D01*
X138296761Y-90712704D02*
X138334856Y-90750800D01*
X138334856Y-90750800D02*
X138411047Y-90788895D01*
X138411047Y-90788895D02*
X138639618Y-90788895D01*
X138639618Y-90788895D02*
X138715809Y-90750800D01*
X138715809Y-90750800D02*
X138753904Y-90712704D01*
D11*
%TO.C,TP1*%
X139638000Y-96328000D02*
X138238000Y-96328000D01*
X139638000Y-97728000D02*
X139638000Y-96328000D01*
X138238000Y-96328000D02*
X138238000Y-97728000D01*
X138238000Y-97728000D02*
X139638000Y-97728000D01*
%TO.C,TP2*%
X138238000Y-93788000D02*
X138238000Y-95188000D01*
X138238000Y-95188000D02*
X139638000Y-95188000D01*
X139638000Y-93788000D02*
X138238000Y-93788000D01*
X139638000Y-95188000D02*
X139638000Y-93788000D01*
%TO.C,TP4*%
X138238000Y-86168000D02*
X138238000Y-87568000D01*
X138238000Y-87568000D02*
X139638000Y-87568000D01*
X139638000Y-86168000D02*
X138238000Y-86168000D01*
X139638000Y-87568000D02*
X139638000Y-86168000D01*
%TO.C,TP3*%
X138238000Y-91248000D02*
X138238000Y-92648000D01*
X138238000Y-92648000D02*
X139638000Y-92648000D01*
X139638000Y-91248000D02*
X138238000Y-91248000D01*
X139638000Y-92648000D02*
X139638000Y-91248000D01*
%TD*%
M02*
