%TF.GenerationSoftware,KiCad,Pcbnew,9.0.3*%
%TF.CreationDate,2026-01-09T14:10:27-05:00*%
%TF.ProjectId,BME280_Module,424d4532-3830-45f4-9d6f-64756c652e6b,rev?*%
%TF.SameCoordinates,Original*%
%TF.FileFunction,Legend,Top*%
%TF.FilePolarity,Positive*%
%FSLAX46Y46*%
G04 Gerber Fmt 4.6, Leading zero omitted, Abs format (unit mm)*
G04 Created by KiCad (PCBNEW 9.0.3) date 2026-01-09 14:10:27*
%MOMM*%
%LPD*%
G01*
G04 APERTURE LIST*
%ADD10C,0.100000*%
%ADD11C,0.120000*%
G04 APERTURE END LIST*
D10*
X137891803Y-87145013D02*
X138646050Y-87522137D01*
X138646050Y-87522137D02*
X138268926Y-86767890D01*
X139023173Y-87145014D02*
X138457488Y-86579328D01*
X138457488Y-86579328D02*
X138592175Y-86444641D01*
X138592175Y-86444641D02*
X138699924Y-86390766D01*
X138699924Y-86390766D02*
X138807674Y-86390766D01*
X138807674Y-86390766D02*
X138888486Y-86417704D01*
X138888486Y-86417704D02*
X139023173Y-86498516D01*
X139023173Y-86498516D02*
X139103986Y-86579328D01*
X139103986Y-86579328D02*
X139184798Y-86714015D01*
X139184798Y-86714015D02*
X139211735Y-86794827D01*
X139211735Y-86794827D02*
X139211735Y-86902577D01*
X139211735Y-86902577D02*
X139157860Y-87010327D01*
X139157860Y-87010327D02*
X139023173Y-87145014D01*
X139588859Y-86579328D02*
X139023173Y-86013643D01*
X139023173Y-86013643D02*
X139157860Y-85878956D01*
X139157860Y-85878956D02*
X139265610Y-85825081D01*
X139265610Y-85825081D02*
X139373360Y-85825081D01*
X139373360Y-85825081D02*
X139454172Y-85852018D01*
X139454172Y-85852018D02*
X139588859Y-85932830D01*
X139588859Y-85932830D02*
X139669671Y-86013643D01*
X139669671Y-86013643D02*
X139750483Y-86148330D01*
X139750483Y-86148330D02*
X139777421Y-86229142D01*
X139777421Y-86229142D02*
X139777421Y-86336892D01*
X139777421Y-86336892D02*
X139723546Y-86444641D01*
X139723546Y-86444641D02*
X139588859Y-86579328D01*
X138295864Y-97208827D02*
X138215051Y-97235765D01*
X138215051Y-97235765D02*
X138134239Y-97316577D01*
X138134239Y-97316577D02*
X138080364Y-97424326D01*
X138080364Y-97424326D02*
X138080364Y-97532076D01*
X138080364Y-97532076D02*
X138107302Y-97612888D01*
X138107302Y-97612888D02*
X138188114Y-97747575D01*
X138188114Y-97747575D02*
X138268926Y-97828387D01*
X138268926Y-97828387D02*
X138403613Y-97909200D01*
X138403613Y-97909200D02*
X138484425Y-97936137D01*
X138484425Y-97936137D02*
X138592175Y-97936137D01*
X138592175Y-97936137D02*
X138699925Y-97882262D01*
X138699925Y-97882262D02*
X138753799Y-97828387D01*
X138753799Y-97828387D02*
X138807674Y-97720638D01*
X138807674Y-97720638D02*
X138807674Y-97666763D01*
X138807674Y-97666763D02*
X138619112Y-97478201D01*
X138619112Y-97478201D02*
X138511363Y-97585951D01*
X139103986Y-97478201D02*
X138538300Y-96912516D01*
X138538300Y-96912516D02*
X139427235Y-97154952D01*
X139427235Y-97154952D02*
X138861549Y-96589267D01*
X139696608Y-96885578D02*
X139130923Y-96319893D01*
X139130923Y-96319893D02*
X139265610Y-96185206D01*
X139265610Y-96185206D02*
X139373360Y-96131331D01*
X139373360Y-96131331D02*
X139481109Y-96131331D01*
X139481109Y-96131331D02*
X139561921Y-96158269D01*
X139561921Y-96158269D02*
X139696608Y-96239081D01*
X139696608Y-96239081D02*
X139777421Y-96319893D01*
X139777421Y-96319893D02*
X139858233Y-96454580D01*
X139858233Y-96454580D02*
X139885170Y-96535392D01*
X139885170Y-96535392D02*
X139885170Y-96643142D01*
X139885170Y-96643142D02*
X139831295Y-96750891D01*
X139831295Y-96750891D02*
X139696608Y-96885578D01*
X138484425Y-90169887D02*
X138592175Y-90116012D01*
X138592175Y-90116012D02*
X138726862Y-89981325D01*
X138726862Y-89981325D02*
X138753799Y-89900513D01*
X138753799Y-89900513D02*
X138753799Y-89846638D01*
X138753799Y-89846638D02*
X138726862Y-89765826D01*
X138726862Y-89765826D02*
X138672987Y-89711951D01*
X138672987Y-89711951D02*
X138592175Y-89685013D01*
X138592175Y-89685013D02*
X138538300Y-89685013D01*
X138538300Y-89685013D02*
X138457488Y-89711951D01*
X138457488Y-89711951D02*
X138322801Y-89792763D01*
X138322801Y-89792763D02*
X138241989Y-89819700D01*
X138241989Y-89819700D02*
X138188114Y-89819700D01*
X138188114Y-89819700D02*
X138107302Y-89792763D01*
X138107302Y-89792763D02*
X138053427Y-89738888D01*
X138053427Y-89738888D02*
X138026490Y-89658076D01*
X138026490Y-89658076D02*
X138026490Y-89604201D01*
X138026490Y-89604201D02*
X138053427Y-89523389D01*
X138053427Y-89523389D02*
X138188114Y-89388702D01*
X138188114Y-89388702D02*
X138295864Y-89334827D01*
X139077048Y-89631138D02*
X138511363Y-89065453D01*
X138511363Y-89065453D02*
X138646050Y-88930766D01*
X138646050Y-88930766D02*
X138753800Y-88876891D01*
X138753800Y-88876891D02*
X138861549Y-88876891D01*
X138861549Y-88876891D02*
X138942361Y-88903829D01*
X138942361Y-88903829D02*
X139077048Y-88984641D01*
X139077048Y-88984641D02*
X139157861Y-89065453D01*
X139157861Y-89065453D02*
X139238673Y-89200140D01*
X139238673Y-89200140D02*
X139265610Y-89280952D01*
X139265610Y-89280952D02*
X139265610Y-89388702D01*
X139265610Y-89388702D02*
X139211735Y-89496451D01*
X139211735Y-89496451D02*
X139077048Y-89631138D01*
X139184798Y-88392018D02*
X139292548Y-88284268D01*
X139292548Y-88284268D02*
X139373360Y-88257331D01*
X139373360Y-88257331D02*
X139481109Y-88257331D01*
X139481109Y-88257331D02*
X139615796Y-88338143D01*
X139615796Y-88338143D02*
X139804358Y-88526705D01*
X139804358Y-88526705D02*
X139885171Y-88661392D01*
X139885171Y-88661392D02*
X139885171Y-88769142D01*
X139885171Y-88769142D02*
X139858233Y-88849954D01*
X139858233Y-88849954D02*
X139750483Y-88957703D01*
X139750483Y-88957703D02*
X139669671Y-88984641D01*
X139669671Y-88984641D02*
X139561922Y-88984641D01*
X139561922Y-88984641D02*
X139427235Y-88903829D01*
X139427235Y-88903829D02*
X139238673Y-88715267D01*
X139238673Y-88715267D02*
X139157861Y-88580580D01*
X139157861Y-88580580D02*
X139157861Y-88472830D01*
X139157861Y-88472830D02*
X139184798Y-88392018D01*
X138484425Y-95249887D02*
X138592175Y-95196012D01*
X138592175Y-95196012D02*
X138726862Y-95061325D01*
X138726862Y-95061325D02*
X138753799Y-94980513D01*
X138753799Y-94980513D02*
X138753799Y-94926638D01*
X138753799Y-94926638D02*
X138726862Y-94845826D01*
X138726862Y-94845826D02*
X138672987Y-94791951D01*
X138672987Y-94791951D02*
X138592175Y-94765013D01*
X138592175Y-94765013D02*
X138538300Y-94765013D01*
X138538300Y-94765013D02*
X138457488Y-94791951D01*
X138457488Y-94791951D02*
X138322801Y-94872763D01*
X138322801Y-94872763D02*
X138241989Y-94899700D01*
X138241989Y-94899700D02*
X138188114Y-94899700D01*
X138188114Y-94899700D02*
X138107302Y-94872763D01*
X138107302Y-94872763D02*
X138053427Y-94818888D01*
X138053427Y-94818888D02*
X138026490Y-94738076D01*
X138026490Y-94738076D02*
X138026490Y-94684201D01*
X138026490Y-94684201D02*
X138053427Y-94603389D01*
X138053427Y-94603389D02*
X138188114Y-94468702D01*
X138188114Y-94468702D02*
X138295864Y-94414827D01*
X139077048Y-94711138D02*
X138511363Y-94145453D01*
X138511363Y-94145453D02*
X138646050Y-94010766D01*
X138646050Y-94010766D02*
X138753800Y-93956891D01*
X138753800Y-93956891D02*
X138861549Y-93956891D01*
X138861549Y-93956891D02*
X138942361Y-93983829D01*
X138942361Y-93983829D02*
X139077048Y-94064641D01*
X139077048Y-94064641D02*
X139157861Y-94145453D01*
X139157861Y-94145453D02*
X139238673Y-94280140D01*
X139238673Y-94280140D02*
X139265610Y-94360952D01*
X139265610Y-94360952D02*
X139265610Y-94468702D01*
X139265610Y-94468702D02*
X139211735Y-94576451D01*
X139211735Y-94576451D02*
X139077048Y-94711138D01*
X139454172Y-94010766D02*
X139723546Y-93741392D01*
X139561922Y-94226265D02*
X139184798Y-93472018D01*
X139184798Y-93472018D02*
X139939045Y-93849142D01*
X138484425Y-92709887D02*
X138592175Y-92656012D01*
X138592175Y-92656012D02*
X138726862Y-92521325D01*
X138726862Y-92521325D02*
X138753799Y-92440513D01*
X138753799Y-92440513D02*
X138753799Y-92386638D01*
X138753799Y-92386638D02*
X138726862Y-92305826D01*
X138726862Y-92305826D02*
X138672987Y-92251951D01*
X138672987Y-92251951D02*
X138592175Y-92225013D01*
X138592175Y-92225013D02*
X138538300Y-92225013D01*
X138538300Y-92225013D02*
X138457488Y-92251951D01*
X138457488Y-92251951D02*
X138322801Y-92332763D01*
X138322801Y-92332763D02*
X138241989Y-92359700D01*
X138241989Y-92359700D02*
X138188114Y-92359700D01*
X138188114Y-92359700D02*
X138107302Y-92332763D01*
X138107302Y-92332763D02*
X138053427Y-92278888D01*
X138053427Y-92278888D02*
X138026490Y-92198076D01*
X138026490Y-92198076D02*
X138026490Y-92144201D01*
X138026490Y-92144201D02*
X138053427Y-92063389D01*
X138053427Y-92063389D02*
X138188114Y-91928702D01*
X138188114Y-91928702D02*
X138295864Y-91874827D01*
X139346422Y-91794015D02*
X139346422Y-91847890D01*
X139346422Y-91847890D02*
X139292548Y-91955639D01*
X139292548Y-91955639D02*
X139238673Y-92009514D01*
X139238673Y-92009514D02*
X139130923Y-92063389D01*
X139130923Y-92063389D02*
X139023174Y-92063389D01*
X139023174Y-92063389D02*
X138942361Y-92036451D01*
X138942361Y-92036451D02*
X138807674Y-91955639D01*
X138807674Y-91955639D02*
X138726862Y-91874827D01*
X138726862Y-91874827D02*
X138646050Y-91740140D01*
X138646050Y-91740140D02*
X138619113Y-91659328D01*
X138619113Y-91659328D02*
X138619113Y-91551578D01*
X138619113Y-91551578D02*
X138672987Y-91443829D01*
X138672987Y-91443829D02*
X138726862Y-91389954D01*
X138726862Y-91389954D02*
X138834612Y-91336079D01*
X138834612Y-91336079D02*
X138888487Y-91336079D01*
X139912108Y-91336079D02*
X139642734Y-91605453D01*
X139642734Y-91605453D02*
X139077048Y-91039768D01*
X136893333Y-84654895D02*
X136893333Y-85226323D01*
X136893333Y-85226323D02*
X136855238Y-85340609D01*
X136855238Y-85340609D02*
X136779047Y-85416800D01*
X136779047Y-85416800D02*
X136664762Y-85454895D01*
X136664762Y-85454895D02*
X136588571Y-85454895D01*
X137236190Y-84731085D02*
X137274286Y-84692990D01*
X137274286Y-84692990D02*
X137350476Y-84654895D01*
X137350476Y-84654895D02*
X137540952Y-84654895D01*
X137540952Y-84654895D02*
X137617143Y-84692990D01*
X137617143Y-84692990D02*
X137655238Y-84731085D01*
X137655238Y-84731085D02*
X137693333Y-84807276D01*
X137693333Y-84807276D02*
X137693333Y-84883466D01*
X137693333Y-84883466D02*
X137655238Y-84997752D01*
X137655238Y-84997752D02*
X137198095Y-85454895D01*
X137198095Y-85454895D02*
X137693333Y-85454895D01*
X128596895Y-92557523D02*
X129244514Y-92557523D01*
X129244514Y-92557523D02*
X129320704Y-92519428D01*
X129320704Y-92519428D02*
X129358800Y-92481333D01*
X129358800Y-92481333D02*
X129396895Y-92405142D01*
X129396895Y-92405142D02*
X129396895Y-92252761D01*
X129396895Y-92252761D02*
X129358800Y-92176571D01*
X129358800Y-92176571D02*
X129320704Y-92138476D01*
X129320704Y-92138476D02*
X129244514Y-92100380D01*
X129244514Y-92100380D02*
X128596895Y-92100380D01*
X129396895Y-91300381D02*
X129396895Y-91757524D01*
X129396895Y-91528952D02*
X128596895Y-91528952D01*
X128596895Y-91528952D02*
X128711180Y-91605143D01*
X128711180Y-91605143D02*
X128787371Y-91681333D01*
X128787371Y-91681333D02*
X128825466Y-91757524D01*
X130422667Y-86394704D02*
X130384571Y-86432800D01*
X130384571Y-86432800D02*
X130270286Y-86470895D01*
X130270286Y-86470895D02*
X130194095Y-86470895D01*
X130194095Y-86470895D02*
X130079809Y-86432800D01*
X130079809Y-86432800D02*
X130003619Y-86356609D01*
X130003619Y-86356609D02*
X129965524Y-86280419D01*
X129965524Y-86280419D02*
X129927428Y-86128038D01*
X129927428Y-86128038D02*
X129927428Y-86013752D01*
X129927428Y-86013752D02*
X129965524Y-85861371D01*
X129965524Y-85861371D02*
X130003619Y-85785180D01*
X130003619Y-85785180D02*
X130079809Y-85708990D01*
X130079809Y-85708990D02*
X130194095Y-85670895D01*
X130194095Y-85670895D02*
X130270286Y-85670895D01*
X130270286Y-85670895D02*
X130384571Y-85708990D01*
X130384571Y-85708990D02*
X130422667Y-85747085D01*
X130689333Y-85670895D02*
X131184571Y-85670895D01*
X131184571Y-85670895D02*
X130917905Y-85975657D01*
X130917905Y-85975657D02*
X131032190Y-85975657D01*
X131032190Y-85975657D02*
X131108381Y-86013752D01*
X131108381Y-86013752D02*
X131146476Y-86051847D01*
X131146476Y-86051847D02*
X131184571Y-86128038D01*
X131184571Y-86128038D02*
X131184571Y-86318514D01*
X131184571Y-86318514D02*
X131146476Y-86394704D01*
X131146476Y-86394704D02*
X131108381Y-86432800D01*
X131108381Y-86432800D02*
X131032190Y-86470895D01*
X131032190Y-86470895D02*
X130803619Y-86470895D01*
X130803619Y-86470895D02*
X130727428Y-86432800D01*
X130727428Y-86432800D02*
X130689333Y-86394704D01*
X128644667Y-86394704D02*
X128606571Y-86432800D01*
X128606571Y-86432800D02*
X128492286Y-86470895D01*
X128492286Y-86470895D02*
X128416095Y-86470895D01*
X128416095Y-86470895D02*
X128301809Y-86432800D01*
X128301809Y-86432800D02*
X128225619Y-86356609D01*
X128225619Y-86356609D02*
X128187524Y-86280419D01*
X128187524Y-86280419D02*
X128149428Y-86128038D01*
X128149428Y-86128038D02*
X128149428Y-86013752D01*
X128149428Y-86013752D02*
X128187524Y-85861371D01*
X128187524Y-85861371D02*
X128225619Y-85785180D01*
X128225619Y-85785180D02*
X128301809Y-85708990D01*
X128301809Y-85708990D02*
X128416095Y-85670895D01*
X128416095Y-85670895D02*
X128492286Y-85670895D01*
X128492286Y-85670895D02*
X128606571Y-85708990D01*
X128606571Y-85708990D02*
X128644667Y-85747085D01*
X128949428Y-85747085D02*
X128987524Y-85708990D01*
X128987524Y-85708990D02*
X129063714Y-85670895D01*
X129063714Y-85670895D02*
X129254190Y-85670895D01*
X129254190Y-85670895D02*
X129330381Y-85708990D01*
X129330381Y-85708990D02*
X129368476Y-85747085D01*
X129368476Y-85747085D02*
X129406571Y-85823276D01*
X129406571Y-85823276D02*
X129406571Y-85899466D01*
X129406571Y-85899466D02*
X129368476Y-86013752D01*
X129368476Y-86013752D02*
X128911333Y-86470895D01*
X128911333Y-86470895D02*
X129406571Y-86470895D01*
X132200667Y-86394704D02*
X132162571Y-86432800D01*
X132162571Y-86432800D02*
X132048286Y-86470895D01*
X132048286Y-86470895D02*
X131972095Y-86470895D01*
X131972095Y-86470895D02*
X131857809Y-86432800D01*
X131857809Y-86432800D02*
X131781619Y-86356609D01*
X131781619Y-86356609D02*
X131743524Y-86280419D01*
X131743524Y-86280419D02*
X131705428Y-86128038D01*
X131705428Y-86128038D02*
X131705428Y-86013752D01*
X131705428Y-86013752D02*
X131743524Y-85861371D01*
X131743524Y-85861371D02*
X131781619Y-85785180D01*
X131781619Y-85785180D02*
X131857809Y-85708990D01*
X131857809Y-85708990D02*
X131972095Y-85670895D01*
X131972095Y-85670895D02*
X132048286Y-85670895D01*
X132048286Y-85670895D02*
X132162571Y-85708990D01*
X132162571Y-85708990D02*
X132200667Y-85747085D01*
X132962571Y-86470895D02*
X132505428Y-86470895D01*
X132734000Y-86470895D02*
X132734000Y-85670895D01*
X132734000Y-85670895D02*
X132657809Y-85785180D01*
X132657809Y-85785180D02*
X132581619Y-85861371D01*
X132581619Y-85861371D02*
X132505428Y-85899466D01*
X129152667Y-97900895D02*
X128886000Y-97519942D01*
X128695524Y-97900895D02*
X128695524Y-97100895D01*
X128695524Y-97100895D02*
X129000286Y-97100895D01*
X129000286Y-97100895D02*
X129076476Y-97138990D01*
X129076476Y-97138990D02*
X129114571Y-97177085D01*
X129114571Y-97177085D02*
X129152667Y-97253276D01*
X129152667Y-97253276D02*
X129152667Y-97367561D01*
X129152667Y-97367561D02*
X129114571Y-97443752D01*
X129114571Y-97443752D02*
X129076476Y-97481847D01*
X129076476Y-97481847D02*
X129000286Y-97519942D01*
X129000286Y-97519942D02*
X128695524Y-97519942D01*
X129457428Y-97177085D02*
X129495524Y-97138990D01*
X129495524Y-97138990D02*
X129571714Y-97100895D01*
X129571714Y-97100895D02*
X129762190Y-97100895D01*
X129762190Y-97100895D02*
X129838381Y-97138990D01*
X129838381Y-97138990D02*
X129876476Y-97177085D01*
X129876476Y-97177085D02*
X129914571Y-97253276D01*
X129914571Y-97253276D02*
X129914571Y-97329466D01*
X129914571Y-97329466D02*
X129876476Y-97443752D01*
X129876476Y-97443752D02*
X129419333Y-97900895D01*
X129419333Y-97900895D02*
X129914571Y-97900895D01*
X127628667Y-90534895D02*
X127362000Y-90153942D01*
X127171524Y-90534895D02*
X127171524Y-89734895D01*
X127171524Y-89734895D02*
X127476286Y-89734895D01*
X127476286Y-89734895D02*
X127552476Y-89772990D01*
X127552476Y-89772990D02*
X127590571Y-89811085D01*
X127590571Y-89811085D02*
X127628667Y-89887276D01*
X127628667Y-89887276D02*
X127628667Y-90001561D01*
X127628667Y-90001561D02*
X127590571Y-90077752D01*
X127590571Y-90077752D02*
X127552476Y-90115847D01*
X127552476Y-90115847D02*
X127476286Y-90153942D01*
X127476286Y-90153942D02*
X127171524Y-90153942D01*
X127895333Y-89734895D02*
X128390571Y-89734895D01*
X128390571Y-89734895D02*
X128123905Y-90039657D01*
X128123905Y-90039657D02*
X128238190Y-90039657D01*
X128238190Y-90039657D02*
X128314381Y-90077752D01*
X128314381Y-90077752D02*
X128352476Y-90115847D01*
X128352476Y-90115847D02*
X128390571Y-90192038D01*
X128390571Y-90192038D02*
X128390571Y-90382514D01*
X128390571Y-90382514D02*
X128352476Y-90458704D01*
X128352476Y-90458704D02*
X128314381Y-90496800D01*
X128314381Y-90496800D02*
X128238190Y-90534895D01*
X128238190Y-90534895D02*
X128009619Y-90534895D01*
X128009619Y-90534895D02*
X127933428Y-90496800D01*
X127933428Y-90496800D02*
X127895333Y-90458704D01*
X132200667Y-97392895D02*
X131934000Y-97011942D01*
X131743524Y-97392895D02*
X131743524Y-96592895D01*
X131743524Y-96592895D02*
X132048286Y-96592895D01*
X132048286Y-96592895D02*
X132124476Y-96630990D01*
X132124476Y-96630990D02*
X132162571Y-96669085D01*
X132162571Y-96669085D02*
X132200667Y-96745276D01*
X132200667Y-96745276D02*
X132200667Y-96859561D01*
X132200667Y-96859561D02*
X132162571Y-96935752D01*
X132162571Y-96935752D02*
X132124476Y-96973847D01*
X132124476Y-96973847D02*
X132048286Y-97011942D01*
X132048286Y-97011942D02*
X131743524Y-97011942D01*
X132962571Y-97392895D02*
X132505428Y-97392895D01*
X132734000Y-97392895D02*
X132734000Y-96592895D01*
X132734000Y-96592895D02*
X132657809Y-96707180D01*
X132657809Y-96707180D02*
X132581619Y-96783371D01*
X132581619Y-96783371D02*
X132505428Y-96821466D01*
D11*
%TO.C,J2*%
X134764000Y-85488000D02*
X136144000Y-85488000D01*
X134764000Y-86868000D02*
X134764000Y-85488000D01*
X134764000Y-88138000D02*
X134764000Y-98408000D01*
X134764000Y-88138000D02*
X137524000Y-88138000D01*
X134764000Y-98408000D02*
X137524000Y-98408000D01*
X137524000Y-88138000D02*
X137524000Y-98408000D01*
D10*
%TO.C,U1*%
X129460000Y-90598000D02*
X129460000Y-90748000D01*
X129460000Y-90598000D02*
X129610000Y-90598000D01*
X129460000Y-93298000D02*
X129460000Y-93148000D01*
X129610000Y-93298000D02*
X129460000Y-93298000D01*
X132160000Y-90588000D02*
X132010000Y-90588000D01*
X132160000Y-90598000D02*
X132160000Y-90748000D01*
D11*
X132160000Y-93658000D02*
X132160000Y-93298000D01*
X132520000Y-93298000D01*
X132160000Y-93658000D01*
G36*
X132160000Y-93658000D02*
G01*
X132160000Y-93298000D01*
X132520000Y-93298000D01*
X132160000Y-93658000D01*
G37*
%TO.C,C3*%
X130046000Y-88278580D02*
X130046000Y-87997420D01*
X131066000Y-88278580D02*
X131066000Y-87997420D01*
%TO.C,C2*%
X128268000Y-88278580D02*
X128268000Y-87997420D01*
X129288000Y-88278580D02*
X129288000Y-87997420D01*
%TO.C,C1*%
X131824000Y-88278580D02*
X131824000Y-87997420D01*
X132844000Y-88278580D02*
X132844000Y-87997420D01*
%TO.C,R2*%
X128763500Y-95741258D02*
X128763500Y-95266742D01*
X129808500Y-95741258D02*
X129808500Y-95266742D01*
%TO.C,R3*%
X127239500Y-91964742D02*
X127239500Y-92439258D01*
X128284500Y-91964742D02*
X128284500Y-92439258D01*
%TO.C,R1*%
X131842742Y-94981500D02*
X132317258Y-94981500D01*
X131842742Y-96026500D02*
X132317258Y-96026500D01*
%TD*%
M02*
