%TF.GenerationSoftware,KiCad,Pcbnew,9.0.3*%
%TF.CreationDate,2026-01-09T14:10:27-05:00*%
%TF.ProjectId,BME280_Module,424d4532-3830-45f4-9d6f-64756c652e6b,rev?*%
%TF.SameCoordinates,Original*%
%TF.FileFunction,Copper,L1,Top*%
%TF.FilePolarity,Positive*%
%FSLAX46Y46*%
G04 Gerber Fmt 4.6, Leading zero omitted, Abs format (unit mm)*
G04 Created by KiCad (PCBNEW 9.0.3) date 2026-01-09 14:10:27*
%MOMM*%
%LPD*%
G01*
G04 APERTURE LIST*
G04 Aperture macros list*
%AMRoundRect*
0 Rectangle with rounded corners*
0 $1 Rounding radius*
0 $2 $3 $4 $5 $6 $7 $8 $9 X,Y pos of 4 corners*
0 Add a 4 corners polygon primitive as box body*
4,1,4,$2,$3,$4,$5,$6,$7,$8,$9,$2,$3,0*
0 Add four circle primitives for the rounded corners*
1,1,$1+$1,$2,$3*
1,1,$1+$1,$4,$5*
1,1,$1+$1,$6,$7*
1,1,$1+$1,$8,$9*
0 Add four rect primitives between the rounded corners*
20,1,$1+$1,$2,$3,$4,$5,0*
20,1,$1+$1,$4,$5,$6,$7,0*
20,1,$1+$1,$6,$7,$8,$9,0*
20,1,$1+$1,$8,$9,$2,$3,0*%
G04 Aperture macros list end*
%TA.AperFunction,ComponentPad*%
%ADD10R,1.700000X1.700000*%
%TD*%
%TA.AperFunction,ComponentPad*%
%ADD11C,1.700000*%
%TD*%
%TA.AperFunction,SMDPad,CuDef*%
%ADD12R,0.350000X0.500000*%
%TD*%
%TA.AperFunction,SMDPad,CuDef*%
%ADD13RoundRect,0.225000X0.250000X-0.225000X0.250000X0.225000X-0.250000X0.225000X-0.250000X-0.225000X0*%
%TD*%
%TA.AperFunction,SMDPad,CuDef*%
%ADD14RoundRect,0.200000X0.275000X-0.200000X0.275000X0.200000X-0.275000X0.200000X-0.275000X-0.200000X0*%
%TD*%
%TA.AperFunction,SMDPad,CuDef*%
%ADD15RoundRect,0.200000X-0.275000X0.200000X-0.275000X-0.200000X0.275000X-0.200000X0.275000X0.200000X0*%
%TD*%
%TA.AperFunction,SMDPad,CuDef*%
%ADD16RoundRect,0.200000X-0.200000X-0.275000X0.200000X-0.275000X0.200000X0.275000X-0.200000X0.275000X0*%
%TD*%
%TA.AperFunction,ViaPad*%
%ADD17C,0.600000*%
%TD*%
%TA.AperFunction,Conductor*%
%ADD18C,0.300000*%
%TD*%
%TA.AperFunction,Conductor*%
%ADD19C,0.400000*%
%TD*%
G04 APERTURE END LIST*
D10*
%TO.P,J2,1,Pin_1*%
%TO.N,3V3*%
X136144000Y-86868000D03*
D11*
%TO.P,J2,2,Pin_2*%
%TO.N,/SDO*%
X136144000Y-89408000D03*
%TO.P,J2,3,Pin_3*%
%TO.N,/SCL*%
X136144000Y-91948000D03*
%TO.P,J2,4,Pin_4*%
%TO.N,/SDA*%
X136144000Y-94488000D03*
%TO.P,J2,5,Pin_5*%
%TO.N,GND*%
X136144000Y-97028000D03*
%TD*%
D12*
%TO.P,U1,1,GND*%
%TO.N,GND*%
X131785000Y-92973000D03*
%TO.P,U1,2,CSB*%
%TO.N,3V3*%
X131135000Y-92973000D03*
%TO.P,U1,3,SDI*%
%TO.N,/SDA*%
X130485000Y-92973000D03*
%TO.P,U1,4,SCK*%
%TO.N,/SCL*%
X129835000Y-92973000D03*
%TO.P,U1,5,SDO*%
%TO.N,/SDO*%
X129835000Y-90923000D03*
%TO.P,U1,6,VDDIO*%
%TO.N,3V3*%
X130485000Y-90923000D03*
%TO.P,U1,7,GND*%
%TO.N,GND*%
X131135000Y-90923000D03*
%TO.P,U1,8,VDD*%
%TO.N,3V3*%
X131785000Y-90923000D03*
%TD*%
D13*
%TO.P,C3,1*%
%TO.N,3V3*%
X130556000Y-88913000D03*
%TO.P,C3,2*%
%TO.N,GND*%
X130556000Y-87363000D03*
%TD*%
%TO.P,C2,1*%
%TO.N,3V3*%
X128778000Y-88913000D03*
%TO.P,C2,2*%
%TO.N,GND*%
X128778000Y-87363000D03*
%TD*%
%TO.P,C1,1*%
%TO.N,3V3*%
X132334000Y-88913000D03*
%TO.P,C1,2*%
%TO.N,GND*%
X132334000Y-87363000D03*
%TD*%
D14*
%TO.P,R2,1*%
%TO.N,3V3*%
X129286000Y-96329000D03*
%TO.P,R2,2*%
%TO.N,/SCL*%
X129286000Y-94679000D03*
%TD*%
D15*
%TO.P,R3,1*%
%TO.N,/SDO*%
X127762000Y-91377000D03*
%TO.P,R3,2*%
%TO.N,GND*%
X127762000Y-93027000D03*
%TD*%
D16*
%TO.P,R1,1*%
%TO.N,3V3*%
X131255000Y-95504000D03*
%TO.P,R1,2*%
%TO.N,/SDA*%
X132905000Y-95504000D03*
%TD*%
D17*
%TO.N,GND*%
X133350000Y-85852000D03*
X131835000Y-93980000D03*
X128778000Y-92710000D03*
X133350000Y-96774000D03*
X127000000Y-88138000D03*
X133604000Y-90678000D03*
X127762000Y-94234000D03*
%TO.N,/SDO*%
X128778000Y-90678000D03*
%TO.N,/SCL*%
X129794000Y-91948000D03*
%TO.N,/SDA*%
X132842000Y-93980000D03*
X130556000Y-92202000D03*
%TD*%
D18*
%TO.N,GND*%
X132334000Y-86868000D02*
X133350000Y-85852000D01*
X132334000Y-87363000D02*
X132334000Y-86868000D01*
X127762000Y-93027000D02*
X128461000Y-93027000D01*
X128461000Y-93027000D02*
X128778000Y-92710000D01*
X132232000Y-92050000D02*
X133604000Y-90678000D01*
X131785000Y-92050000D02*
X132232000Y-92050000D01*
%TO.N,/SDA*%
X135128000Y-95504000D02*
X136144000Y-94488000D01*
X132905000Y-95504000D02*
X135128000Y-95504000D01*
%TO.N,GND*%
X135890000Y-96774000D02*
X136144000Y-97028000D01*
X133350000Y-96774000D02*
X135890000Y-96774000D01*
%TO.N,3V3*%
X134620000Y-86868000D02*
X136144000Y-86868000D01*
X132575000Y-88913000D02*
X134620000Y-86868000D01*
X132334000Y-88913000D02*
X132575000Y-88913000D01*
D19*
X130430000Y-96329000D02*
X131255000Y-95504000D01*
X128018000Y-96329000D02*
X129286000Y-96329000D01*
X126685000Y-94996000D02*
X128018000Y-96329000D01*
D18*
X131785000Y-90923000D02*
X131785000Y-89462000D01*
X130485000Y-90923000D02*
X130485000Y-88984000D01*
D19*
X132547000Y-88687000D02*
X132588000Y-88646000D01*
X126685000Y-89723000D02*
X126685000Y-94996000D01*
D18*
X130485000Y-88984000D02*
X130556000Y-88913000D01*
D19*
X129286000Y-96329000D02*
X130430000Y-96329000D01*
X128778000Y-88913000D02*
X127495000Y-88913000D01*
X127495000Y-88913000D02*
X126685000Y-89723000D01*
X131135000Y-95384000D02*
X131135000Y-92973000D01*
X131255000Y-95504000D02*
X131135000Y-95384000D01*
D18*
X131785000Y-89462000D02*
X132334000Y-88913000D01*
D19*
X128778000Y-88913000D02*
X132334000Y-88913000D01*
D18*
%TO.N,GND*%
X131785000Y-92050000D02*
X131135000Y-91400000D01*
X131135000Y-91400000D02*
X131135000Y-90923000D01*
X128778000Y-87363000D02*
X127775000Y-87363000D01*
X127762000Y-93027000D02*
X127762000Y-94234000D01*
X131785000Y-92973000D02*
X131785000Y-93930000D01*
X127775000Y-87363000D02*
X127000000Y-88138000D01*
X131785000Y-93930000D02*
X131835000Y-93980000D01*
X131785000Y-92973000D02*
X131785000Y-92050000D01*
X128778000Y-87363000D02*
X132334000Y-87363000D01*
%TO.N,/SDO*%
X129835000Y-90923000D02*
X129023000Y-90923000D01*
X129023000Y-90923000D02*
X128778000Y-90678000D01*
X129381000Y-91377000D02*
X129835000Y-90923000D01*
X127762000Y-91377000D02*
X129381000Y-91377000D01*
%TO.N,/SCL*%
X129286000Y-93522000D02*
X129835000Y-92973000D01*
X129286000Y-94679000D02*
X129286000Y-93522000D01*
X129835000Y-91989000D02*
X129794000Y-91948000D01*
X129835000Y-92973000D02*
X129835000Y-91989000D01*
%TO.N,/SDA*%
X130485000Y-92273000D02*
X130556000Y-92202000D01*
X130485000Y-92973000D02*
X130485000Y-92273000D01*
X132842000Y-95441000D02*
X132905000Y-95504000D01*
X132842000Y-93980000D02*
X132842000Y-95441000D01*
%TD*%
%TA.AperFunction,Conductor*%
%TO.N,GND*%
G36*
X140666539Y-84848185D02*
G01*
X140712294Y-84900989D01*
X140723500Y-84952500D01*
X140723500Y-98689500D01*
X140703815Y-98756539D01*
X140651011Y-98802294D01*
X140599500Y-98813500D01*
X126608500Y-98813500D01*
X126541461Y-98793815D01*
X126495706Y-98741011D01*
X126484500Y-98689500D01*
X126484500Y-96085519D01*
X126504185Y-96018480D01*
X126556989Y-95972725D01*
X126626147Y-95962781D01*
X126689703Y-95991806D01*
X126696181Y-95997838D01*
X127571453Y-96873111D01*
X127571454Y-96873112D01*
X127686192Y-96949777D01*
X127813667Y-97002578D01*
X127813672Y-97002580D01*
X127813676Y-97002580D01*
X127813677Y-97002581D01*
X127949003Y-97029500D01*
X127949006Y-97029500D01*
X127949007Y-97029500D01*
X128469480Y-97029500D01*
X128536519Y-97049185D01*
X128557161Y-97065819D01*
X128575811Y-97084469D01*
X128575813Y-97084470D01*
X128575815Y-97084472D01*
X128721394Y-97172478D01*
X128883804Y-97223086D01*
X128954384Y-97229500D01*
X128954387Y-97229500D01*
X129617613Y-97229500D01*
X129617616Y-97229500D01*
X129688196Y-97223086D01*
X129850606Y-97172478D01*
X129996185Y-97084472D01*
X129996189Y-97084468D01*
X130014839Y-97065819D01*
X130076162Y-97032334D01*
X130102520Y-97029500D01*
X130498996Y-97029500D01*
X130590040Y-97011389D01*
X130634328Y-97002580D01*
X130731877Y-96962174D01*
X130761807Y-96949777D01*
X130761808Y-96949776D01*
X130761811Y-96949775D01*
X130876543Y-96873114D01*
X131233838Y-96515819D01*
X131295161Y-96482334D01*
X131321519Y-96479500D01*
X131511613Y-96479500D01*
X131511616Y-96479500D01*
X131582196Y-96473086D01*
X131744606Y-96422478D01*
X131890185Y-96334472D01*
X131928510Y-96296147D01*
X131992319Y-96232339D01*
X132053642Y-96198854D01*
X132123334Y-96203838D01*
X132167681Y-96232339D01*
X132269811Y-96334469D01*
X132269813Y-96334470D01*
X132269815Y-96334472D01*
X132415394Y-96422478D01*
X132577804Y-96473086D01*
X132648384Y-96479500D01*
X132648387Y-96479500D01*
X133161613Y-96479500D01*
X133161616Y-96479500D01*
X133232196Y-96473086D01*
X133394606Y-96422478D01*
X133540185Y-96334472D01*
X133660472Y-96214185D01*
X133660474Y-96214180D01*
X133665094Y-96208285D01*
X133666117Y-96209087D01*
X133711904Y-96167160D01*
X133766489Y-96154500D01*
X134871581Y-96154500D01*
X134938620Y-96174185D01*
X134984375Y-96226989D01*
X134994319Y-96296147D01*
X134982066Y-96334795D01*
X134892904Y-96509782D01*
X134827242Y-96711869D01*
X134827242Y-96711872D01*
X134794000Y-96921753D01*
X134794000Y-97134246D01*
X134827242Y-97344127D01*
X134827242Y-97344130D01*
X134892904Y-97546217D01*
X134989375Y-97735550D01*
X135028728Y-97789716D01*
X135661037Y-97157408D01*
X135678075Y-97220993D01*
X135743901Y-97335007D01*
X135836993Y-97428099D01*
X135951007Y-97493925D01*
X136014590Y-97510962D01*
X135382282Y-98143269D01*
X135382282Y-98143270D01*
X135436449Y-98182624D01*
X135625782Y-98279095D01*
X135827870Y-98344757D01*
X136037754Y-98378000D01*
X136250246Y-98378000D01*
X136460127Y-98344757D01*
X136460130Y-98344757D01*
X136662217Y-98279095D01*
X136851554Y-98182622D01*
X136905716Y-98143270D01*
X136905717Y-98143270D01*
X136273408Y-97510962D01*
X136336993Y-97493925D01*
X136451007Y-97428099D01*
X136544099Y-97335007D01*
X136609925Y-97220993D01*
X136626962Y-97157408D01*
X137259270Y-97789717D01*
X137259270Y-97789716D01*
X137298622Y-97735554D01*
X137395095Y-97546217D01*
X137460757Y-97344130D01*
X137460757Y-97344127D01*
X137494000Y-97134246D01*
X137494000Y-96921753D01*
X137460757Y-96711872D01*
X137460757Y-96711869D01*
X137395095Y-96509782D01*
X137298624Y-96320449D01*
X137259270Y-96266282D01*
X137259269Y-96266282D01*
X136626962Y-96898590D01*
X136609925Y-96835007D01*
X136544099Y-96720993D01*
X136451007Y-96627901D01*
X136336993Y-96562075D01*
X136273408Y-96545037D01*
X136905716Y-95912728D01*
X136851547Y-95873373D01*
X136851547Y-95873372D01*
X136842500Y-95868763D01*
X136791706Y-95820788D01*
X136774912Y-95752966D01*
X136797451Y-95686832D01*
X136842508Y-95647793D01*
X136851816Y-95643051D01*
X136971100Y-95556387D01*
X137023786Y-95518109D01*
X137023788Y-95518106D01*
X137023792Y-95518104D01*
X137174104Y-95367792D01*
X137174106Y-95367788D01*
X137174109Y-95367786D01*
X137299048Y-95195820D01*
X137299047Y-95195820D01*
X137299051Y-95195816D01*
X137395557Y-95006412D01*
X137461246Y-94804243D01*
X137494500Y-94594287D01*
X137494500Y-94381713D01*
X137461246Y-94171757D01*
X137395557Y-93969588D01*
X137299051Y-93780184D01*
X137299049Y-93780181D01*
X137299048Y-93780179D01*
X137174109Y-93608213D01*
X137023786Y-93457890D01*
X136851820Y-93332951D01*
X136850456Y-93332256D01*
X136843054Y-93328485D01*
X136792259Y-93280512D01*
X136775463Y-93212692D01*
X136797999Y-93146556D01*
X136843054Y-93107515D01*
X136851816Y-93103051D01*
X136929398Y-93046685D01*
X137023786Y-92978109D01*
X137023788Y-92978106D01*
X137023792Y-92978104D01*
X137174104Y-92827792D01*
X137174106Y-92827788D01*
X137174109Y-92827786D01*
X137299048Y-92655820D01*
X137299047Y-92655820D01*
X137299051Y-92655816D01*
X137395557Y-92466412D01*
X137461246Y-92264243D01*
X137494500Y-92054287D01*
X137494500Y-91841713D01*
X137461246Y-91631757D01*
X137395557Y-91429588D01*
X137299051Y-91240184D01*
X137299049Y-91240181D01*
X137299048Y-91240179D01*
X137174109Y-91068213D01*
X137023786Y-90917890D01*
X136851820Y-90792951D01*
X136851115Y-90792591D01*
X136843054Y-90788485D01*
X136792259Y-90740512D01*
X136775463Y-90672692D01*
X136797999Y-90606556D01*
X136843054Y-90567515D01*
X136851816Y-90563051D01*
X136888178Y-90536633D01*
X137023786Y-90438109D01*
X137023788Y-90438106D01*
X137023792Y-90438104D01*
X137174104Y-90287792D01*
X137174106Y-90287788D01*
X137174109Y-90287786D01*
X137299048Y-90115820D01*
X137299047Y-90115820D01*
X137299051Y-90115816D01*
X137395557Y-89926412D01*
X137461246Y-89724243D01*
X137494500Y-89514287D01*
X137494500Y-89301713D01*
X137461246Y-89091757D01*
X137395557Y-88889588D01*
X137299051Y-88700184D01*
X137299049Y-88700181D01*
X137299048Y-88700179D01*
X137174109Y-88528213D01*
X137060569Y-88414673D01*
X137027084Y-88353350D01*
X137032068Y-88283658D01*
X137073940Y-88227725D01*
X137104915Y-88210810D01*
X137236331Y-88161796D01*
X137351546Y-88075546D01*
X137437796Y-87960331D01*
X137488091Y-87825483D01*
X137494500Y-87765873D01*
X137494499Y-85970128D01*
X137488091Y-85910517D01*
X137437796Y-85775669D01*
X137437795Y-85775668D01*
X137437793Y-85775664D01*
X137351547Y-85660455D01*
X137351544Y-85660452D01*
X137236335Y-85574206D01*
X137236328Y-85574202D01*
X137101482Y-85523908D01*
X137101483Y-85523908D01*
X137041883Y-85517501D01*
X137041881Y-85517500D01*
X137041873Y-85517500D01*
X137041864Y-85517500D01*
X135246129Y-85517500D01*
X135246123Y-85517501D01*
X135186516Y-85523908D01*
X135051671Y-85574202D01*
X135051664Y-85574206D01*
X134936455Y-85660452D01*
X134936452Y-85660455D01*
X134850206Y-85775664D01*
X134850202Y-85775671D01*
X134799908Y-85910517D01*
X134793501Y-85970116D01*
X134793501Y-85970123D01*
X134793500Y-85970135D01*
X134793500Y-86093500D01*
X134773815Y-86160539D01*
X134721011Y-86206294D01*
X134669500Y-86217500D01*
X134555929Y-86217500D01*
X134430261Y-86242497D01*
X134430255Y-86242499D01*
X134311874Y-86291534D01*
X134205326Y-86362726D01*
X133509217Y-87058835D01*
X133447894Y-87092320D01*
X133378202Y-87087336D01*
X133322269Y-87045464D01*
X133303091Y-86996407D01*
X133300273Y-86997011D01*
X133298857Y-86990396D01*
X133245547Y-86829518D01*
X133245542Y-86829507D01*
X133156575Y-86685271D01*
X133156572Y-86685267D01*
X133036732Y-86565427D01*
X133036728Y-86565424D01*
X132892492Y-86476457D01*
X132892481Y-86476452D01*
X132731606Y-86423144D01*
X132632322Y-86413000D01*
X132584000Y-86413000D01*
X132584000Y-87239000D01*
X132564315Y-87306039D01*
X132511511Y-87351794D01*
X132460000Y-87363000D01*
X132334000Y-87363000D01*
X132334000Y-87489000D01*
X132314315Y-87556039D01*
X132261511Y-87601794D01*
X132210000Y-87613000D01*
X127803001Y-87613000D01*
X127803001Y-87636322D01*
X127813144Y-87735607D01*
X127866452Y-87896481D01*
X127866457Y-87896492D01*
X127944738Y-88023403D01*
X127963179Y-88090795D01*
X127942257Y-88157458D01*
X127888615Y-88202228D01*
X127839200Y-88212500D01*
X127426004Y-88212500D01*
X127290677Y-88239418D01*
X127290667Y-88239421D01*
X127163192Y-88292222D01*
X127048454Y-88368887D01*
X127048453Y-88368888D01*
X126696181Y-88721161D01*
X126634858Y-88754646D01*
X126565166Y-88749662D01*
X126509233Y-88707790D01*
X126484816Y-88642326D01*
X126484500Y-88633480D01*
X126484500Y-87089677D01*
X127803000Y-87089677D01*
X127803000Y-87113000D01*
X128528000Y-87113000D01*
X128528000Y-86413000D01*
X129028000Y-86413000D01*
X129028000Y-87113000D01*
X130306000Y-87113000D01*
X130306000Y-86413000D01*
X130806000Y-86413000D01*
X130806000Y-87113000D01*
X132084000Y-87113000D01*
X132084000Y-86413000D01*
X132083999Y-86412999D01*
X132035693Y-86413000D01*
X132035675Y-86413001D01*
X131936392Y-86423144D01*
X131775518Y-86476452D01*
X131775507Y-86476457D01*
X131631271Y-86565424D01*
X131532681Y-86664014D01*
X131471358Y-86697498D01*
X131401666Y-86692514D01*
X131357319Y-86664014D01*
X131258728Y-86565424D01*
X131114492Y-86476457D01*
X131114481Y-86476452D01*
X130953606Y-86423144D01*
X130854322Y-86413000D01*
X130806000Y-86413000D01*
X130306000Y-86413000D01*
X130305999Y-86412999D01*
X130257693Y-86413000D01*
X130257675Y-86413001D01*
X130158392Y-86423144D01*
X129997518Y-86476452D01*
X129997507Y-86476457D01*
X129853271Y-86565424D01*
X129754681Y-86664014D01*
X129693358Y-86697498D01*
X129623666Y-86692514D01*
X129579319Y-86664014D01*
X129480728Y-86565424D01*
X129336492Y-86476457D01*
X129336481Y-86476452D01*
X129175606Y-86423144D01*
X129076322Y-86413000D01*
X129028000Y-86413000D01*
X128528000Y-86413000D01*
X128527999Y-86412999D01*
X128479693Y-86413000D01*
X128479675Y-86413001D01*
X128380392Y-86423144D01*
X128219518Y-86476452D01*
X128219507Y-86476457D01*
X128075271Y-86565424D01*
X128075267Y-86565427D01*
X127955427Y-86685267D01*
X127955424Y-86685271D01*
X127866457Y-86829507D01*
X127866452Y-86829518D01*
X127813144Y-86990393D01*
X127803000Y-87089677D01*
X126484500Y-87089677D01*
X126484500Y-84952500D01*
X126504185Y-84885461D01*
X126556989Y-84839706D01*
X126608500Y-84828500D01*
X140599500Y-84828500D01*
X140666539Y-84848185D01*
G37*
%TD.AperFunction*%
%TA.AperFunction,Conductor*%
G36*
X127955039Y-93046685D02*
G01*
X128000794Y-93099489D01*
X128012000Y-93151000D01*
X128012000Y-93926999D01*
X128093581Y-93926999D01*
X128164102Y-93920591D01*
X128164104Y-93920591D01*
X128302789Y-93877374D01*
X128372649Y-93876222D01*
X128432042Y-93913022D01*
X128462111Y-93976091D01*
X128453309Y-94045404D01*
X128445798Y-94059908D01*
X128367523Y-94189391D01*
X128316913Y-94351807D01*
X128314196Y-94381713D01*
X128310500Y-94422384D01*
X128310500Y-94935616D01*
X128312423Y-94956778D01*
X128316913Y-95006192D01*
X128316913Y-95006194D01*
X128316914Y-95006196D01*
X128316982Y-95006414D01*
X128367522Y-95168606D01*
X128455530Y-95314188D01*
X128557661Y-95416319D01*
X128561999Y-95424264D01*
X128569247Y-95429690D01*
X128578481Y-95454449D01*
X128591146Y-95477642D01*
X128590500Y-95486671D01*
X128593664Y-95495154D01*
X128588047Y-95520974D01*
X128586162Y-95547334D01*
X128580343Y-95556387D01*
X128578812Y-95563427D01*
X128557661Y-95591681D01*
X128557161Y-95592181D01*
X128495838Y-95625666D01*
X128469480Y-95628500D01*
X128359519Y-95628500D01*
X128292480Y-95608815D01*
X128271838Y-95592181D01*
X127421819Y-94742162D01*
X127388334Y-94680839D01*
X127385500Y-94654481D01*
X127385500Y-94050998D01*
X127405185Y-93983959D01*
X127457989Y-93938204D01*
X127509500Y-93926998D01*
X127512000Y-93926998D01*
X127512000Y-93151000D01*
X127531685Y-93083961D01*
X127584489Y-93038206D01*
X127636000Y-93027000D01*
X127888000Y-93027000D01*
X127955039Y-93046685D01*
G37*
%TD.AperFunction*%
%TA.AperFunction,Conductor*%
G36*
X134670711Y-87770412D02*
G01*
X134735418Y-87775040D01*
X134735419Y-87775041D01*
X134791352Y-87816912D01*
X134792063Y-87818215D01*
X134808266Y-87847889D01*
X134850202Y-87960328D01*
X134850206Y-87960335D01*
X134936452Y-88075544D01*
X134936455Y-88075547D01*
X135051664Y-88161793D01*
X135051671Y-88161797D01*
X135183082Y-88210810D01*
X135239016Y-88252681D01*
X135263433Y-88318145D01*
X135248582Y-88386418D01*
X135227431Y-88414673D01*
X135113889Y-88528215D01*
X134988951Y-88700179D01*
X134892444Y-88889585D01*
X134826753Y-89091760D01*
X134793500Y-89301713D01*
X134793500Y-89514286D01*
X134825688Y-89717516D01*
X134826754Y-89724243D01*
X134888315Y-89913708D01*
X134892444Y-89926414D01*
X134988951Y-90115820D01*
X135113890Y-90287786D01*
X135264213Y-90438109D01*
X135436182Y-90563050D01*
X135444946Y-90567516D01*
X135495742Y-90615491D01*
X135512536Y-90683312D01*
X135489998Y-90749447D01*
X135444946Y-90788484D01*
X135436182Y-90792949D01*
X135264213Y-90917890D01*
X135113890Y-91068213D01*
X134988951Y-91240179D01*
X134892444Y-91429585D01*
X134826753Y-91631760D01*
X134793500Y-91841713D01*
X134793500Y-92054286D01*
X134821235Y-92229401D01*
X134826754Y-92264243D01*
X134885617Y-92445405D01*
X134892444Y-92466414D01*
X134988951Y-92655820D01*
X135113890Y-92827786D01*
X135264213Y-92978109D01*
X135436182Y-93103050D01*
X135444946Y-93107516D01*
X135495742Y-93155491D01*
X135512536Y-93223312D01*
X135489998Y-93289447D01*
X135444946Y-93328484D01*
X135436182Y-93332949D01*
X135264213Y-93457890D01*
X135113890Y-93608213D01*
X134988951Y-93780179D01*
X134892444Y-93969585D01*
X134826753Y-94171760D01*
X134793500Y-94381713D01*
X134793500Y-94594287D01*
X134793499Y-94594287D01*
X134811843Y-94710103D01*
X134802888Y-94779396D01*
X134757892Y-94832848D01*
X134691140Y-94853487D01*
X134689370Y-94853500D01*
X133766489Y-94853500D01*
X133699450Y-94833815D01*
X133677741Y-94816101D01*
X133667762Y-94805875D01*
X133660472Y-94793815D01*
X133540185Y-94673528D01*
X133536360Y-94671216D01*
X133527752Y-94662394D01*
X133515100Y-94638534D01*
X133499395Y-94616565D01*
X133497495Y-94605335D01*
X133495020Y-94600666D01*
X133495578Y-94593999D01*
X133492500Y-94575793D01*
X133492500Y-94484935D01*
X133512185Y-94417896D01*
X133513366Y-94416090D01*
X133551394Y-94359179D01*
X133611737Y-94213497D01*
X133642500Y-94058842D01*
X133642500Y-93901158D01*
X133642500Y-93901155D01*
X133642499Y-93901153D01*
X133622608Y-93801156D01*
X133611737Y-93746503D01*
X133599554Y-93717090D01*
X133551397Y-93600827D01*
X133551390Y-93600814D01*
X133463789Y-93469711D01*
X133463786Y-93469707D01*
X133352292Y-93358213D01*
X133352288Y-93358210D01*
X133221185Y-93270609D01*
X133221172Y-93270602D01*
X133075501Y-93210264D01*
X133075489Y-93210261D01*
X132920845Y-93179500D01*
X132920842Y-93179500D01*
X132763158Y-93179500D01*
X132763155Y-93179500D01*
X132602528Y-93211451D01*
X132602016Y-93208879D01*
X132543498Y-93209357D01*
X132489780Y-93177780D01*
X132460000Y-93148000D01*
X131959500Y-93148000D01*
X131950814Y-93145449D01*
X131941853Y-93146738D01*
X131917812Y-93135759D01*
X131892461Y-93128315D01*
X131886533Y-93121474D01*
X131878297Y-93117713D01*
X131864007Y-93095478D01*
X131846706Y-93075511D01*
X131844418Y-93064996D01*
X131840523Y-93058935D01*
X131835500Y-93024000D01*
X131835500Y-92922000D01*
X131855185Y-92854961D01*
X131907989Y-92809206D01*
X131959500Y-92798000D01*
X132460000Y-92798000D01*
X132460000Y-92675172D01*
X132459999Y-92675155D01*
X132453598Y-92615627D01*
X132453596Y-92615620D01*
X132403354Y-92480913D01*
X132403350Y-92480906D01*
X132317190Y-92365812D01*
X132317187Y-92365809D01*
X132202093Y-92279649D01*
X132202086Y-92279645D01*
X132067379Y-92229403D01*
X132067372Y-92229401D01*
X132007844Y-92223000D01*
X131960000Y-92223000D01*
X131960000Y-92383565D01*
X131952173Y-92410218D01*
X131947596Y-92437624D01*
X131942465Y-92443280D01*
X131940315Y-92450604D01*
X131919321Y-92468794D01*
X131900654Y-92489375D01*
X131893280Y-92491359D01*
X131887511Y-92496359D01*
X131860012Y-92500312D01*
X131833185Y-92507533D01*
X131825910Y-92505216D01*
X131818353Y-92506303D01*
X131793081Y-92494761D01*
X131766610Y-92486332D01*
X131759229Y-92479302D01*
X131754797Y-92477278D01*
X131740468Y-92462620D01*
X131738543Y-92460294D01*
X131667546Y-92365454D01*
X131647876Y-92350729D01*
X131638468Y-92339360D01*
X131630267Y-92320267D01*
X131617816Y-92303633D01*
X131613973Y-92282333D01*
X131610893Y-92275161D01*
X131611752Y-92270017D01*
X131610000Y-92260305D01*
X131610000Y-92223000D01*
X131562155Y-92223000D01*
X131494913Y-92230231D01*
X131494608Y-92227398D01*
X131438277Y-92224368D01*
X131381613Y-92183491D01*
X131359784Y-92128715D01*
X131357689Y-92129132D01*
X131325738Y-91968510D01*
X131325737Y-91968503D01*
X131273312Y-91841936D01*
X131270795Y-91818526D01*
X131263883Y-91796023D01*
X131267129Y-91784434D01*
X131265843Y-91772467D01*
X131276381Y-91751413D01*
X131282733Y-91728745D01*
X131291730Y-91720751D01*
X131297118Y-91709988D01*
X131317365Y-91697974D01*
X131334965Y-91682338D01*
X131351599Y-91677663D01*
X131357207Y-91674336D01*
X131368704Y-91671975D01*
X131440116Y-91660801D01*
X131462801Y-91663775D01*
X131485624Y-91662140D01*
X131502387Y-91667060D01*
X131502511Y-91667088D01*
X131502517Y-91667091D01*
X131562127Y-91673500D01*
X132007872Y-91673499D01*
X132067483Y-91667091D01*
X132202331Y-91616796D01*
X132317546Y-91530546D01*
X132403796Y-91415331D01*
X132454091Y-91280483D01*
X132460500Y-91220873D01*
X132460499Y-90625128D01*
X132454091Y-90565517D01*
X132443317Y-90536632D01*
X132435500Y-90493300D01*
X132435500Y-89987499D01*
X132455185Y-89920460D01*
X132507989Y-89874705D01*
X132559500Y-89863499D01*
X132632338Y-89863499D01*
X132632344Y-89863499D01*
X132632352Y-89863498D01*
X132632355Y-89863498D01*
X132709554Y-89855612D01*
X132731708Y-89853349D01*
X132892697Y-89800003D01*
X133037044Y-89710968D01*
X133156968Y-89591044D01*
X133246003Y-89446697D01*
X133299349Y-89285708D01*
X133309500Y-89186345D01*
X133309499Y-89149808D01*
X133329182Y-89082770D01*
X133345813Y-89062131D01*
X134604406Y-87803538D01*
X134632242Y-87788339D01*
X134665726Y-87770056D01*
X134665727Y-87770056D01*
X134670711Y-87770412D01*
G37*
%TD.AperFunction*%
%TA.AperFunction,Conductor*%
G36*
X132040703Y-94171577D02*
G01*
X132074061Y-94217838D01*
X132132602Y-94359172D01*
X132132606Y-94359179D01*
X132170602Y-94416044D01*
X132171782Y-94419813D01*
X132174651Y-94422528D01*
X132187285Y-94469325D01*
X132191480Y-94482721D01*
X132191188Y-94483782D01*
X132191500Y-94484935D01*
X132191500Y-94675480D01*
X132171815Y-94742519D01*
X132119011Y-94788274D01*
X132049853Y-94798218D01*
X131986297Y-94769193D01*
X131979819Y-94763161D01*
X131890188Y-94673530D01*
X131884282Y-94668903D01*
X131886111Y-94666567D01*
X131874621Y-94654016D01*
X131852349Y-94632940D01*
X131851250Y-94628485D01*
X131848152Y-94625101D01*
X131835500Y-94570533D01*
X131835500Y-94265290D01*
X131855185Y-94198251D01*
X131907989Y-94152496D01*
X131977147Y-94142552D01*
X132040703Y-94171577D01*
G37*
%TD.AperFunction*%
%TA.AperFunction,Conductor*%
G36*
X128958906Y-92047185D02*
G01*
X129004661Y-92099989D01*
X129013484Y-92127309D01*
X129024261Y-92181489D01*
X129024264Y-92181501D01*
X129084602Y-92327172D01*
X129084609Y-92327185D01*
X129163602Y-92445405D01*
X129169252Y-92463451D01*
X129179477Y-92479361D01*
X129183928Y-92510320D01*
X129184480Y-92512082D01*
X129184500Y-92514296D01*
X129184500Y-92543299D01*
X129176682Y-92586632D01*
X129165908Y-92615516D01*
X129159501Y-92675116D01*
X129159500Y-92675135D01*
X129159500Y-92677191D01*
X129159365Y-92677650D01*
X129159322Y-92678452D01*
X129159132Y-92678441D01*
X129139815Y-92744230D01*
X129123181Y-92764872D01*
X128948680Y-92939373D01*
X128887357Y-92972858D01*
X128817665Y-92967874D01*
X128761732Y-92926002D01*
X128737315Y-92860538D01*
X128736999Y-92851692D01*
X128736999Y-92770417D01*
X128730591Y-92699897D01*
X128730590Y-92699892D01*
X128680018Y-92537603D01*
X128592072Y-92392122D01*
X128489984Y-92290034D01*
X128485645Y-92282088D01*
X128478397Y-92276662D01*
X128469162Y-92251902D01*
X128456499Y-92228711D01*
X128457144Y-92219680D01*
X128453981Y-92211198D01*
X128459597Y-92185377D01*
X128461483Y-92159019D01*
X128467301Y-92149965D01*
X128468833Y-92142925D01*
X128489982Y-92114674D01*
X128540839Y-92063818D01*
X128602162Y-92030334D01*
X128628519Y-92027500D01*
X128891867Y-92027500D01*
X128958906Y-92047185D01*
G37*
%TD.AperFunction*%
%TD*%
M02*
